<svg width="64" height="64" viewBox="0 0 64 64" xmlns="http://www.w3.org/2000/svg" role="img" aria-label="Grandmaster tier icon">
  <defs>
    <linearGradient id="grad" x1="0" y1="0" x2="1" y2="1">
      <stop offset="0%" stop-color="#e74c3c"/>
      <stop offset="100%" stop-color="#c0392b"/>
    </linearGradient>
  </defs>
  <circle cx="32" cy="32" r="28" fill="url(#grad)" opacity="0.2"/>
  <path d="M32 8 C38 16 46 18 48 28 C50 40 42 52 32 56 C22 52 14 40 16 28 C18 18 26 16 32 8 Z" fill="url(#grad)"/>
  <path d="M32 18 C36 24 40 26 40 32 C40 38 36 44 32 46 C28 44 24 38 24 32 C24 26 28 24 32 18 Z" fill="#ff8a80" opacity="0.9"/>
</svg>
